{
	"asset":{
		"generator":"Khronos glTF Blender I/O v5.1.19",
		"version":"2.0"
	},
	"scene":0,
	"scenes":[
		{
			"name":"Scene",
			"nodes":[
				10,
				11,
				12,
				13,
				14,
				15,
				16,
				17,
				18,
				19,
				20
			]
		}
	],
	"nodes":[
		{
			"mesh":0,
			"name":"Fleche_Bras_LTM_1110",
			"translation":[
				-0.13206559419631958,
				-0.0066989148035645485,
				0.0009849127382040024
			]
		},
		{
			"children":[
				0
			],
			"mesh":1,
			"name":"6eme_Bras_LTM_1110",
			"translation":[
				2.784430980682373,
				0.08031988143920898,
				-3.3840556144714355
			]
		},
		{
			"children":[
				1
			],
			"mesh":2,
			"name":"5eme_Bras_LTM_1110"
		},
		{
			"children":[
				2
			],
			"mesh":3,
			"name":"4eme_Bras_LTM_1110",
			"translation":[
				-3.185529947280884,
				-0.046665724366903305,
				3.4433391094207764
			]
		},
		{
			"children":[
				3
			],
			"mesh":4,
			"name":"3eme_Bras_LTM_1110",
			"translation":[
				-0.13119250535964966,
				-0.019012944772839546,
				0.040455758571624756
			]
		},
		{
			"children":[
				4
			],
			"mesh":5,
			"name":"2eme_Bras_LTM_1110",
			"translation":[
				-0.432809054851532,
				0.11178922653198242,
				0.17561286687850952
			]
		},
		{
			"mesh":6,
			"name":"Tige_verin_bras_telescopique_LTM_1110",
			"rotation":[
				-0.7053262591362,
				-0.05014834180474281,
				-0.05014834925532341,
				0.7053263187408447
			],
			"translation":[
				-6.924217224121094,
				0.046110618859529495,
				0.8594072461128235
			]
		},
		{
			"children":[
				5,
				6
			],
			"mesh":7,
			"name":"1er_Bras_LTM_1110",
			"rotation":[
				0,
				-0.31741201877593994,
				0,
				0.9482877254486084
			],
			"translation":[
				0.0559811070561409,
				-0.04611165076494217,
				0.09528780728578568
			]
		},
		{
			"mesh":8,
			"name":"Corps_verin_bras_telescopique_LTM_1110",
			"rotation":[
				-0.6529106497764587,
				-0.2714914381504059,
				-0.27149149775505066,
				0.6529107689857483
			],
			"translation":[
				-1.9052355289459229,
				0,
				1.2546948194503784
			]
		},
		{
			"children":[
				7,
				8
			],
			"mesh":9,
			"name":"Chassis_articulation_bras_telescopique_LTM_1136",
			"rotation":[
				0.7071068286895752,
				0,
				0,
				0.7071068286895752
			],
			"translation":[
				3.6935501098632812,
				3.7858505249023438,
				-0.004816095810383558
			]
		},
		{
			"children":[
				9
			],
			"mesh":10,
			"name":"Chassis",
			"rotation":[
				0,
				-1,
				0,
				7.54979225803254e-08
			],
			"translation":[
				1.6335906982421875,
				0,
				0.8443863391876221
			]
		},
		{
			"mesh":11,
			"name":"Roue_LTM_1111",
			"translation":[
				5.759744644165039,
				0.7153970003128052,
				-0.2293131947517395
			]
		},
		{
			"mesh":12,
			"name":"Roue_LTM_1114",
			"translation":[
				3.2631969451904297,
				0.7127058506011963,
				-0.22417619824409485
			]
		},
		{
			"mesh":13,
			"name":"Roue_LTM_1117",
			"translation":[
				1.6072989702224731,
				0.7112595438957214,
				-0.22377492487430573
			]
		},
		{
			"mesh":14,
			"name":"Roue_LTM_1120",
			"rotation":[
				0,
				-1,
				0,
				7.54979225803254e-08
			],
			"translation":[
				-0.3966643810272217,
				0.7121727466583252,
				-0.22435462474822998
			]
		},
		{
			"mesh":15,
			"name":"Roue_LTM_1123",
			"rotation":[
				0,
				-1,
				0,
				7.54979225803254e-08
			],
			"translation":[
				-2.049285411834717,
				0.7135318517684937,
				-0.3587716817855835
			]
		},
		{
			"mesh":16,
			"name":"Roue_LTM_1126",
			"translation":[
				5.759990692138672,
				0.7174369692802429,
				1.92196524143219
			]
		},
		{
			"mesh":17,
			"name":"Roue_LTM_1129",
			"translation":[
				3.264549732208252,
				0.7176395058631897,
				1.9209787845611572
			]
		},
		{
			"mesh":18,
			"name":"Roue_LTM_1132",
			"translation":[
				1.6156021356582642,
				0.7152752876281738,
				1.922100305557251
			]
		},
		{
			"mesh":19,
			"name":"Roue_LTM_1135",
			"rotation":[
				0,
				-1,
				0,
				7.54979225803254e-08
			],
			"translation":[
				-0.40037989616394043,
				0.7170482277870178,
				1.9217255115509033
			]
		},
		{
			"mesh":20,
			"name":"Roue_LTM_1138",
			"translation":[
				-2.049245834350586,
				0.714093804359436,
				1.920854091644287
			]
		}
	],
	"materials":[
		{
			"doubleSided":true,
			"name":"mat_6",
			"pbrMetallicRoughness":{
				"baseColorFactor":[
					1,
					0.7681509852409363,
					0.020289000123739243,
					1
				]
			}
		},
		{
			"doubleSided":true,
			"name":"mat_4"
		},
		{
			"doubleSided":true,
			"name":"mat_2",
			"pbrMetallicRoughness":{
				"baseColorFactor":[
					1,
					0,
					0,
					1
				]
			}
		},
		{
			"doubleSided":true,
			"name":"mat_5",
			"pbrMetallicRoughness":{
				"baseColorFactor":[
					0.05126899853348732,
					0.05126899853348732,
					0.05126899853348732,
					1
				]
			}
		},
		{
			"doubleSided":true,
			"name":"mat_7",
			"pbrMetallicRoughness":{
				"baseColorFactor":[
					1,
					1,
					0.527114987373352,
					1
				]
			}
		},
		{
			"doubleSided":true,
			"name":"mat_1",
			"pbrMetallicRoughness":{
				"baseColorFactor":[
					0.527114987373352,
					0.527114987373352,
					0.527114987373352,
					1
				]
			}
		},
		{
			"doubleSided":true,
			"name":"mat_3",
			"pbrMetallicRoughness":{
				"baseColorFactor":[
					0.8069519996643066,
					0.16513200104236603,
					0.002428000094369054,
					1
				]
			}
		},
		{
			"doubleSided":true,
			"name":"mat_0",
			"pbrMetallicRoughness":{
				"baseColorFactor":[
					0.2158609926700592,
					0.2158609926700592,
					0.2158609926700592,
					1
				]
			}
		}
	],
	"meshes":[
		{
			"name":"Fleche_Bras_LTM_1110",
			"primitives":[
				{
					"attributes":{
						"POSITION":0,
						"NORMAL":1
					},
					"indices":2,
					"material":0
				},
				{
					"attributes":{
						"POSITION":3,
						"NORMAL":4
					},
					"indices":5,
					"material":1
				},
				{
					"attributes":{
						"POSITION":6,
						"NORMAL":7
					},
					"indices":8,
					"material":2
				},
				{
					"attributes":{
						"POSITION":9,
						"NORMAL":10
					},
					"indices":11,
					"material":3
				}
			]
		},
		{
			"name":"6eme_Bras_LTM_1110",
			"primitives":[
				{
					"attributes":{
						"POSITION":12,
						"NORMAL":13
					},
					"indices":14,
					"material":0
				},
				{
					"attributes":{
						"POSITION":15,
						"NORMAL":16
					},
					"indices":17,
					"material":4
				}
			]
		},
		{
			"name":"5eme_Bras_LTM_1110",
			"primitives":[
				{
					"attributes":{
						"POSITION":18,
						"NORMAL":19
					},
					"indices":20,
					"material":0
				},
				{
					"attributes":{
						"POSITION":21,
						"NORMAL":22
					},
					"indices":23,
					"material":4
				}
			]
		},
		{
			"name":"4eme_Bras_LTM_1110",
			"primitives":[
				{
					"attributes":{
						"POSITION":24,
						"NORMAL":25
					},
					"indices":26,
					"material":0
				},
				{
					"attributes":{
						"POSITION":27,
						"NORMAL":28
					},
					"indices":29,
					"material":4
				}
			]
		},
		{
			"name":"3eme_Bras_LTM_1110",
			"primitives":[
				{
					"attributes":{
						"POSITION":30,
						"NORMAL":31
					},
					"indices":32,
					"material":0
				},
				{
					"attributes":{
						"POSITION":33,
						"NORMAL":34
					},
					"indices":35,
					"material":4
				}
			]
		},
		{
			"name":"2eme_Bras_LTM_1110",
			"primitives":[
				{
					"attributes":{
						"POSITION":36,
						"NORMAL":37
					},
					"indices":38,
					"material":0
				},
				{
					"attributes":{
						"POSITION":39,
						"NORMAL":40
					},
					"indices":41,
					"material":4
				}
			]
		},
		{
			"name":"Tige_verin_bras_telescopique_LTM_1110",
			"primitives":[
				{
					"attributes":{
						"POSITION":42,
						"NORMAL":43
					},
					"indices":44,
					"material":1
				}
			]
		},
		{
			"name":"1er_Bras_LTM_1110",
			"primitives":[
				{
					"attributes":{
						"POSITION":45,
						"NORMAL":46
					},
					"indices":47,
					"material":0
				},
				{
					"attributes":{
						"POSITION":48,
						"NORMAL":49
					},
					"indices":50,
					"material":4
				},
				{
					"attributes":{
						"POSITION":51,
						"NORMAL":52
					},
					"indices":53,
					"material":3
				}
			]
		},
		{
			"name":"Corps_verin_bras_telescopique_LTM_1110",
			"primitives":[
				{
					"attributes":{
						"POSITION":54,
						"NORMAL":55
					},
					"indices":56,
					"material":3
				}
			]
		},
		{
			"name":"Chassis_articulation_bras_telescopique_LTM_1136",
			"primitives":[
				{
					"attributes":{
						"POSITION":57,
						"NORMAL":58
					},
					"indices":59,
					"material":3
				},
				{
					"attributes":{
						"POSITION":60,
						"NORMAL":61
					},
					"indices":62,
					"material":0
				},
				{
					"attributes":{
						"POSITION":63,
						"NORMAL":64
					},
					"indices":65,
					"material":5
				},
				{
					"attributes":{
						"POSITION":66,
						"NORMAL":67
					},
					"indices":68,
					"material":1
				},
				{
					"attributes":{
						"POSITION":69,
						"NORMAL":70
					},
					"indices":71,
					"material":2
				},
				{
					"attributes":{
						"POSITION":72,
						"NORMAL":73
					},
					"indices":74,
					"material":6
				}
			]
		},
		{
			"name":"Protection_moteur_LTM_1110",
			"primitives":[
				{
					"attributes":{
						"POSITION":75,
						"NORMAL":76
					},
					"indices":77,
					"material":0
				},
				{
					"attributes":{
						"POSITION":78,
						"NORMAL":79
					},
					"indices":80,
					"material":1
				},
				{
					"attributes":{
						"POSITION":81,
						"NORMAL":82
					},
					"indices":83,
					"material":3
				},
				{
					"attributes":{
						"POSITION":84,
						"NORMAL":85
					},
					"indices":86,
					"material":7
				},
				{
					"attributes":{
						"POSITION":87,
						"NORMAL":88
					},
					"indices":89,
					"material":5
				},
				{
					"attributes":{
						"POSITION":90,
						"NORMAL":91
					},
					"indices":92,
					"material":2
				},
				{
					"attributes":{
						"POSITION":93,
						"NORMAL":94
					},
					"indices":95,
					"material":6
				}
			]
		},
		{
			"name":"Roue_LTM_1111",
			"primitives":[
				{
					"attributes":{
						"POSITION":96,
						"NORMAL":97
					},
					"indices":98,
					"material":3
				},
				{
					"attributes":{
						"POSITION":99,
						"NORMAL":100
					},
					"indices":101,
					"material":7
				}
			]
		},
		{
			"name":"Roue_LTM_1114",
			"primitives":[
				{
					"attributes":{
						"POSITION":102,
						"NORMAL":103
					},
					"indices":98,
					"material":3
				},
				{
					"attributes":{
						"POSITION":104,
						"NORMAL":105
					},
					"indices":101,
					"material":7
				}
			]
		},
		{
			"name":"Roue_LTM_1117",
			"primitives":[
				{
					"attributes":{
						"POSITION":106,
						"NORMAL":107
					},
					"indices":98,
					"material":3
				},
				{
					"attributes":{
						"POSITION":108,
						"NORMAL":109
					},
					"indices":101,
					"material":7
				}
			]
		},
		{
			"name":"Roue_LTM_1120",
			"primitives":[
				{
					"attributes":{
						"POSITION":110,
						"NORMAL":111
					},
					"indices":98,
					"material":3
				},
				{
					"attributes":{
						"POSITION":112,
						"NORMAL":113
					},
					"indices":101,
					"material":7
				}
			]
		},
		{
			"name":"Roue_LTM_1123",
			"primitives":[
				{
					"attributes":{
						"POSITION":114,
						"NORMAL":115
					},
					"indices":98,
					"material":3
				},
				{
					"attributes":{
						"POSITION":116,
						"NORMAL":117
					},
					"indices":101,
					"material":7
				}
			]
		},
		{
			"name":"Roue_LTM_1126",
			"primitives":[
				{
					"attributes":{
						"POSITION":118,
						"NORMAL":119
					},
					"indices":98,
					"material":3
				},
				{
					"attributes":{
						"POSITION":120,
						"NORMAL":121
					},
					"indices":101,
					"material":7
				}
			]
		},
		{
			"name":"Roue_LTM_1129",
			"primitives":[
				{
					"attributes":{
						"POSITION":122,
						"NORMAL":123
					},
					"indices":98,
					"material":3
				},
				{
					"attributes":{
						"POSITION":124,
						"NORMAL":125
					},
					"indices":101,
					"material":7
				}
			]
		},
		{
			"name":"Roue_LTM_1132",
			"primitives":[
				{
					"attributes":{
						"POSITION":126,
						"NORMAL":127
					},
					"indices":98,
					"material":3
				},
				{
					"attributes":{
						"POSITION":128,
						"NORMAL":129
					},
					"indices":101,
					"material":7
				}
			]
		},
		{
			"name":"Roue_LTM_1135",
			"primitives":[
				{
					"attributes":{
						"POSITION":130,
						"NORMAL":131
					},
					"indices":98,
					"material":3
				},
				{
					"attributes":{
						"POSITION":132,
						"NORMAL":133
					},
					"indices":101,
					"material":7
				}
			]
		},
		{
			"name":"Roue_LTM_1138",
			"primitives":[
				{
					"attributes":{
						"POSITION":134,
						"NORMAL":135
					},
					"indices":98,
					"material":3
				},
				{
					"attributes":{
						"POSITION":136,
						"NORMAL":137
					},
					"indices":101,
					"material":7
				}
			]
		}
	],
	"accessors":[
		{
			"bufferView":0,
			"componentType":5126,
			"count":2996,
			"max":[
				0.006943941116333008,
				0.23138009011745453,
				0.5630700588226318
			],
			"min":[
				-10.681299209594727,
				-0.3786209225654602,
				-0.4943270683288574
			],
			"type":"VEC3"
		},
		{
			"bufferView":1,
			"componentType":5126,
			"count":2996,
			"type":"VEC3"
		},
		{
			"bufferView":2,
			"componentType":5123,
			"count":8256,
			"type":"SCALAR"
		},
		{
			"bufferView":3,
			"componentType":5126,
			"count":317,
			"max":[
				-10.633056640625,
				0.07105809450149536,
				0.08307003974914551
			],
			"min":[
				-10.635055541992188,
				-0.21829989552497864,
				-0.12692999839782715
			],
			"type":"VEC3"
		},
		{
			"bufferView":4,
			"componentType":5126,
			"count":317,
			"type":"VEC3"
		},
		{
			"bufferView":5,
			"componentType":5123,
			"count":819,
			"type":"SCALAR"
		},
		{
			"bufferView":6,
			"componentType":5126,
			"count":59,
			"max":[
				-10.634956359863281,
				0.06237010657787323,
				0.08307003974914551
			],
			"min":[
				-10.635055541992188,
				-0.20961089432239532,
				-0.12692999839782715
			],
			"type":"VEC3"
		},
		{
			"bufferView":7,
			"componentType":5126,
			"count":59,
			"type":"VEC3"
		},
		{
			"bufferView":8,
			"componentType":5123,
			"count":117,
			"type":"SCALAR"
		},
		{
			"bufferView":9,
			"componentType":5126,
			"count":1367,
			"max":[
				-10.513055801391602,
				0.24638010561466217,
				0.4730699062347412
			],
			"min":[
				-10.593055725097656,
				-0.39362090826034546,
				-0.36192989349365234
			],
			"type":"VEC3"
		},
		{
			"bufferView":10,
			"componentType":5126,
			"count":1367,
			"type":"VEC3"
		},
		{
			"bufferView":11,
			"componentType":5123,
			"count":4776,
			"type":"SCALAR"
		},
		{
			"bufferView":12,
			"componentType":5126,
			"count":2574,
			"max":[
				0.0069446563720703125,
				0.3046811819076538,
				0.3940558433532715
			],
			"min":[
				-10.293055534362793,
				-0.46531981229782104,
				-0.4659440517425537
			],
			"type":"VEC3"
		},
		{
			"bufferView":13,
			"componentType":5126,
			"count":2574,
			"type":"VEC3"
		},
		{
			"bufferView":14,
			"componentType":5123,
			"count":7272,
			"type":"SCALAR"
		},
		{
			"bufferView":15,
			"componentType":5126,
			"count":664,
			"max":[
				-10.248055458068848,
				0.22246818244457245,
				-0.3711261749267578
			],
			"min":[
				-10.298055648803711,
				-0.3831068277359009,
				-0.4207620620727539
			],
			"type":"VEC3"
		},
		{
			"bufferView":16,
			"componentType":5126,
			"count":664,
			"type":"VEC3"
		},
		{
			"bufferView":17,
			"componentType":5123,
			"count":2808,
			"type":"SCALAR"
		},
		{
			"bufferView":18,
			"componentType":5126,
			"count":2574,
			"max":[
				2.9269840717315674,
				0.4050010144710541,
				-2.9700000286102295
			],
			"min":[
				-7.3730149269104,
				-0.4050000011920929,
				-3.869999885559082
			],
			"type":"VEC3"
		},
		{
			"bufferView":19,
			"componentType":5126,
			"count":2574,
			"type":"VEC3"
		},
		{
			"bufferView":20,
			"componentType":5123,
			"count":7272,
			"type":"SCALAR"
		},
		{
			"bufferView":21,
			"componentType":5126,
			"count":664,
			"max":[
				-7.328014850616455,
				0.32111498713493347,
				-3.775182008743286
			],
			"min":[
				-7.378015995025635,
				-0.3211140036582947,
				-3.8248178958892822
			],
			"type":"VEC3"
		},
		{
			"bufferView":22,
			"componentType":5126,
			"count":664,
			"type":"VEC3"
		},
		{
			"bufferView":23,
			"componentType":5123,
			"count":2808,
			"type":"SCALAR"
		},
		{
			"bufferView":24,
			"componentType":5126,
			"count":2574,
			"max":[
				3.0577709674835205,
				0.42500099539756775,
				-2.950000047683716
			],
			"min":[
				-7.242228984832764,
				-0.42500001192092896,
				-3.890000104904175
			],
			"type":"VEC3"
		},
		{
			"bufferView":25,
			"componentType":5126,
			"count":2574,
			"type":"VEC3"
		},
		{
			"bufferView":26,
			"componentType":5123,
			"count":7272,
			"type":"SCALAR"
		},
		{
			"bufferView":27,
			"componentType":5126,
			"count":664,
			"max":[
				-7.197227954864502,
				0.3394410014152527,
				-3.7951819896698
			],
			"min":[
				-7.247229099273682,
				-0.3394399881362915,
				-3.844818115234375
			],
			"type":"VEC3"
		},
		{
			"bufferView":28,
			"componentType":5126,
			"count":664,
			"type":"VEC3"
		},
		{
			"bufferView":29,
			"componentType":5123,
			"count":2808,
			"type":"SCALAR"
		},
		{
			"bufferView":30,
			"componentType":5126,
			"count":2574,
			"max":[
				0.005537271499633789,
				0.398335337638855,
				0.5133390426635742
			],
			"min":[
				-10.294462203979492,
				-0.49166566133499146,
				-0.4666609764099121
			],
			"type":"VEC3"
		},
		{
			"bufferView":31,
			"componentType":5126,
			"count":2574,
			"type":"VEC3"
		},
		{
			"bufferView":32,
			"componentType":5123,
			"count":7272,
			"type":"SCALAR"
		},
		{
			"bufferView":33,
			"componentType":5126,
			"count":664,
			"max":[
				-10.249462127685547,
				0.31110233068466187,
				-0.3718428611755371
			],
			"min":[
				-10.299463272094727,
				-0.40443265438079834,
				-0.4214789867401123
			],
			"type":"VEC3"
		},
		{
			"bufferView":34,
			"componentType":5126,
			"count":664,
			"type":"VEC3"
		},
		{
			"bufferView":35,
			"componentType":5123,
			"count":2808,
			"type":"SCALAR"
		},
		{
			"bufferView":36,
			"componentType":5126,
			"count":2574,
			"max":[
				0.007677555084228516,
				0.39932239055633545,
				0.5737946033477783
			],
			"min":[
				-10.292322158813477,
				-0.5306786298751831,
				-0.44620537757873535
			],
			"type":"VEC3"
		},
		{
			"bufferView":37,
			"componentType":5126,
			"count":2574,
			"type":"VEC3"
		},
		{
			"bufferView":38,
			"componentType":5123,
			"count":7272,
			"type":"SCALAR"
		},
		{
			"bufferView":39,
			"componentType":5126,
			"count":664,
			"max":[
				-10.247322082519531,
				0.31041640043258667,
				-0.35138726234436035
			],
			"min":[
				-10.297322273254395,
				-0.4417726397514343,
				-0.40102338790893555
			],
			"type":"VEC3"
		},
		{
			"bufferView":40,
			"componentType":5126,
			"count":664,
			"type":"VEC3"
		},
		{
			"bufferView":41,
			"componentType":5123,
			"count":2808,
			"type":"SCALAR"
		},
		{
			"bufferView":42,
			"componentType":5126,
			"count":497,
			"max":[
				3.41402006149292,
				0.12467122077941895,
				0.08750001341104507
			],
			"min":[
				-0.1247720718383789,
				-0.2927556037902832,
				-0.08749999850988388
			],
			"type":"VEC3"
		},
		{
			"bufferView":43,
			"componentType":5126,
			"count":497,
			"type":"VEC3"
		},
		{
			"bufferView":44,
			"componentType":5123,
			"count":1500,
			"type":"SCALAR"
		},
		{
			"bufferView":45,
			"componentType":5126,
			"count":14266,
			"max":[
				0.13578367233276367,
				0.5711116194725037,
				0.9844074249267578
			],
			"min":[
				-10.564216613769531,
				-0.43888938426971436,
				-0.29059267044067383
			],
			"type":"VEC3"
		},
		{
			"bufferView":46,
			"componentType":5126,
			"count":14266,
			"type":"VEC3"
		},
		{
			"bufferView":47,
			"componentType":5123,
			"count":42414,
			"type":"SCALAR"
		},
		{
			"bufferView":48,
			"componentType":5126,
			"count":3984,
			"max":[
				-1.6392161846160889,
				0.4405316710472107,
				-0.19577455520629883
			],
			"min":[
				-10.569215774536133,
				-0.34830933809280396,
				-0.25541067123413086
			],
			"type":"VEC3"
		},
		{
			"bufferView":49,
			"componentType":5126,
			"count":3984,
			"type":"VEC3"
		},
		{
			"bufferView":50,
			"componentType":5123,
			"count":16848,
			"type":"SCALAR"
		},
		{
			"bufferView":51,
			"componentType":5126,
			"count":6582,
			"max":[
				-1.6582162380218506,
				0.7711116075515747,
				0.9217612743377686
			],
			"min":[
				-10.550216674804688,
				-0.3683093786239624,
				-0.23654961585998535
			],
			"type":"VEC3"
		},
		{
			"bufferView":52,
			"componentType":5126,
			"count":6582,
			"type":"VEC3"
		},
		{
			"bufferView":53,
			"componentType":5123,
			"count":29412,
			"type":"SCALAR"
		},
		{
			"bufferView":54,
			"componentType":5126,
			"count":512,
			"max":[
				0.09981739521026611,
				0.42423486709594727,
				0.138979971408844
			],
			"min":[
				-4.714857578277588,
				-0.11753225326538086,
				-0.13897904753684998
			],
			"type":"VEC3"
		},
		{
			"bufferView":55,
			"componentType":5126,
			"count":512,
			"type":"VEC3"
		},
		{
			"bufferView":56,
			"componentType":5123,
			"count":1452,
			"type":"SCALAR"
		},
		{
			"bufferView":57,
			"componentType":5126,
			"count":14797,
			"max":[
				2.3931777477264404,
				1.375,
				1.704695224761963
			],
			"min":[
				-3.6052350997924805,
				-1.3750009536743164,
				-0.1903057098388672
			],
			"type":"VEC3"
		},
		{
			"bufferView":58,
			"componentType":5126,
			"count":14797,
			"type":"VEC3"
		},
		{
			"bufferView":59,
			"componentType":5123,
			"count":52893,
			"type":"SCALAR"
		},
		{
			"bufferView":60,
			"componentType":5126,
			"count":2827,
			"max":[
				1.3447647094726562,
				1.375,
				1.6046950817108154
			],
			"min":[
				-3.6052350997924805,
				-1.3750009536743164,
				-0.14530491828918457
			],
			"type":"VEC3"
		},
		{
			"bufferView":61,
			"componentType":5126,
			"count":2827,
			"type":"VEC3"
		},
		{
			"bufferView":62,
			"componentType":5123,
			"count":8703,
			"type":"SCALAR"
		},
		{
			"bufferView":63,
			"componentType":5126,
			"count":8220,
			"max":[
				1.3147649765014648,
				1.369999885559082,
				1.6046950817108154
			],
			"min":[
				-3.695235252380371,
				-1.3700010776519775,
				-0.2353048324584961
			],
			"type":"VEC3"
		},
		{
			"bufferView":64,
			"componentType":5126,
			"count":8220,
			"type":"VEC3"
		},
		{
			"bufferView":65,
			"componentType":5123,
			"count":28668,
			"type":"SCALAR"
		},
		{
			"bufferView":66,
			"componentType":5126,
			"count":608,
			"max":[
				2.3003079891204834,
				1.375,
				1.624695062637329
			],
			"min":[
				-3.5351450443267822,
				-1.1250009536743164,
				-0.14530491828918457
			],
			"type":"VEC3"
		},
		{
			"bufferView":67,
			"componentType":5126,
			"count":608,
			"type":"VEC3"
		},
		{
			"bufferView":68,
			"componentType":5123,
			"count":1416,
			"type":"SCALAR"
		},
		{
			"bufferView":69,
			"componentType":5126,
			"count":400,
			"max":[
				2.3003079891204834,
				1.1249990463256836,
				1.624695062637329
			],
			"min":[
				2.2374000549316406,
				-1.1250009536743164,
				0.667194128036499
			],
			"type":"VEC3"
		},
		{
			"bufferView":70,
			"componentType":5126,
			"count":400,
			"type":"VEC3"
		},
		{
			"bufferView":71,
			"componentType":5123,
			"count":864,
			"type":"SCALAR"
		},
		{
			"bufferView":72,
			"componentType":5126,
			"count":2654,
			"max":[
				1.2447638511657715,
				0.875,
				-0.19030475616455078
			],
			"min":[
				1.0447649955749512,
				-0.8750009536743164,
				-0.3403046131134033
			],
			"type":"VEC3"
		},
		{
			"bufferView":73,
			"componentType":5126,
			"count":2654,
			"type":"VEC3"
		},
		{
			"bufferView":74,
			"componentType":5123,
			"count":12048,
			"type":"SCALAR"
		},
		{
			"bufferView":75,
			"componentType":5126,
			"count":7087,
			"max":[
				-1.9766850471496582,
				3.062462329864502,
				1.3701832294464111
			],
			"min":[
				-6.62668514251709,
				0.7811552286148071,
				-1.3798168897628784
			],
			"type":"VEC3"
		},
		{
			"bufferView":76,
			"componentType":5126,
			"count":7087,
			"type":"VEC3"
		},
		{
			"bufferView":77,
			"componentType":5123,
			"count":21633,
			"type":"SCALAR"
		},
		{
			"bufferView":78,
			"componentType":5126,
			"count":3114,
			"max":[
				5.683313846588135,
				2.6909713745117188,
				1.3701832294464111
			],
			"min":[
				-6.62668514251709,
				0.5711551904678345,
				-1.3798168897628784
			],
			"type":"VEC3"
		},
		{
			"bufferView":79,
			"componentType":5126,
			"count":3114,
			"type":"VEC3"
		},
		{
			"bufferView":80,
			"componentType":5123,
			"count":8034,
			"type":"SCALAR"
		},
		{
			"bufferView":81,
			"componentType":5126,
			"count":16167,
			"max":[
				5.52831506729126,
				2.881155490875244,
				1.5201830863952637
			],
			"min":[
				-6.796685218811035,
				0.38115525245666504,
				-1.5298168659210205
			],
			"type":"VEC3"
		},
		{
			"bufferView":82,
			"componentType":5126,
			"count":16167,
			"type":"VEC3"
		},
		{
			"bufferView":83,
			"componentType":5123,
			"count":61599,
			"type":"SCALAR"
		},
		{
			"bufferView":84,
			"componentType":5126,
			"count":50966,
			"max":[
				5.9833149909973145,
				2.131155252456665,
				1.4301830530166626
			],
			"min":[
				-5.182735443115234,
				0.413655161857605,
				-1.3798168897628784
			],
			"type":"VEC3"
		},
		{
			"bufferView":85,
			"componentType":5126,
			"count":50966,
			"type":"VEC3"
		},
		{
			"bufferView":86,
			"componentType":5123,
			"count":154104,
			"type":"SCALAR"
		},
		{
			"bufferView":87,
			"componentType":5126,
			"count":22232,
			"max":[
				5.9833149909973145,
				2.091872453689575,
				1.3701832294464111
			],
			"min":[
				-6.476685523986816,
				0.41115522384643555,
				-1.3798168897628784
			],
			"type":"VEC3"
		},
		{
			"bufferView":88,
			"componentType":5126,
			"count":22232,
			"type":"VEC3"
		},
		{
			"bufferView":89,
			"componentType":5123,
			"count":70968,
			"type":"SCALAR"
		},
		{
			"bufferView":90,
			"componentType":5126,
			"count":1064,
			"max":[
				5.683313846588135,
				1.5361554622650146,
				1.3701801300048828
			],
			"min":[
				-3.2166850566864014,
				0.5711551904678345,
				-1.3798139095306396
			],
			"type":"VEC3"
		},
		{
			"bufferView":91,
			"componentType":5126,
			"count":1064,
			"type":"VEC3"
		},
		{
			"bufferView":92,
			"componentType":5123,
			"count":2844,
			"type":"SCALAR"
		},
		{
			"bufferView":93,
			"componentType":5126,
			"count":3906,
			"max":[
				5.553314208984375,
				3.031155586242676,
				1.3851830959320068
			],
			"min":[
				-6.596684455871582,
				0.8611551523208618,
				-1.3948168754577637
			],
			"type":"VEC3"
		},
		{
			"bufferView":94,
			"componentType":5126,
			"count":3906,
			"type":"VEC3"
		},
		{
			"bufferView":95,
			"componentType":5123,
			"count":16380,
			"type":"SCALAR"
		},
		{
			"bufferView":96,
			"componentType":5126,
			"count":15489,
			"max":[
				0.6830306053161621,
				0.6807618141174316,
				0.08351607620716095
			],
			"min":[
				-0.6818957328796387,
				-0.6842383146286011,
				-0.2964842915534973
			],
			"type":"VEC3"
		},
		{
			"bufferView":97,
			"componentType":5126,
			"count":15489,
			"type":"VEC3"
		},
		{
			"bufferView":98,
			"componentType":5123,
			"count":49398,
			"type":"SCALAR"
		},
		{
			"bufferView":99,
			"componentType":5126,
			"count":7688,
			"max":[
				0.3855304718017578,
				0.3832617998123169,
				0.08351597189903259
			],
			"min":[
				-0.38446950912475586,
				-0.38673830032348633,
				-0.2964842915534973
			],
			"type":"VEC3"
		},
		{
			"bufferView":100,
			"componentType":5126,
			"count":7688,
			"type":"VEC3"
		},
		{
			"bufferView":101,
			"componentType":5123,
			"count":32928,
			"type":"SCALAR"
		},
		{
			"bufferView":102,
			"componentType":5126,
			"count":15489,
			"max":[
				0.6795792579650879,
				0.6834516525268555,
				0.07837943732738495
			],
			"min":[
				-0.6853477954864502,
				-0.681548535823822,
				-0.3016209304332733
			],
			"type":"VEC3"
		},
		{
			"bufferView":103,
			"componentType":5126,
			"count":15489,
			"type":"VEC3"
		},
		{
			"bufferView":104,
			"componentType":5126,
			"count":7688,
			"max":[
				0.3820781707763672,
				0.38595151901245117,
				0.07837933301925659
			],
			"min":[
				-0.3879218101501465,
				-0.38404855132102966,
				-0.3016209304332733
			],
			"type":"VEC3"
		},
		{
			"bufferView":105,
			"componentType":5126,
			"count":7688,
			"type":"VEC3"
		},
		{
			"bufferView":106,
			"componentType":5126,
			"count":15489,
			"max":[
				0.6854771375656128,
				0.6848970055580139,
				0.07797840237617493
			],
			"min":[
				-0.6794500350952148,
				-0.6801031827926636,
				-0.30202198028564453
			],
			"type":"VEC3"
		},
		{
			"bufferView":107,
			"componentType":5126,
			"count":15489,
			"type":"VEC3"
		},
		{
			"bufferView":108,
			"componentType":5126,
			"count":7688,
			"max":[
				0.3879770040512085,
				0.3873968720436096,
				0.07797829806804657
			],
			"min":[
				-0.38202404975891113,
				-0.38260316848754883,
				-0.30202198028564453
			],
			"type":"VEC3"
		},
		{
			"bufferView":109,
			"componentType":5126,
			"count":7688,
			"type":"VEC3"
		},
		{
			"bufferView":110,
			"componentType":5126,
			"count":15489,
			"max":[
				0.6854867935180664,
				0.6839825510978699,
				0.3014417886734009
			],
			"min":[
				-0.6794391870498657,
				-0.6810175180435181,
				-0.07855832576751709
			],
			"type":"VEC3"
		},
		{
			"bufferView":111,
			"componentType":5126,
			"count":15489,
			"type":"VEC3"
		},
		{
			"bufferView":112,
			"componentType":5126,
			"count":7688,
			"max":[
				0.3880605697631836,
				0.3864825367927551,
				0.3014417886734009
			],
			"min":[
				-0.3819392919540405,
				-0.3835175037384033,
				-0.07855826616287231
			],
			"type":"VEC3"
		},
		{
			"bufferView":113,
			"componentType":5126,
			"count":7688,
			"type":"VEC3"
		},
		{
			"bufferView":114,
			"componentType":5126,
			"count":15489,
			"max":[
				0.6828653812408447,
				0.682622492313385,
				0.16702449321746826
			],
			"min":[
				-0.6820614337921143,
				-0.6823775768280029,
				-0.2129756212234497
			],
			"type":"VEC3"
		},
		{
			"bufferView":115,
			"componentType":5126,
			"count":15489,
			"type":"VEC3"
		},
		{
			"bufferView":116,
			"componentType":5126,
			"count":7688,
			"max":[
				0.3854396343231201,
				0.38512247800827026,
				0.16702449321746826
			],
			"min":[
				-0.38456130027770996,
				-0.3848775625228882,
				-0.21297556161880493
			],
			"type":"VEC3"
		},
		{
			"bufferView":117,
			"componentType":5126,
			"count":7688,
			"type":"VEC3"
		},
		{
			"bufferView":118,
			"componentType":5126,
			"count":15489,
			"max":[
				0.6827116012573242,
				0.6787212491035461,
				0.3022376298904419
			],
			"min":[
				-0.682215690612793,
				-0.6862788200378418,
				-0.07776272296905518
			],
			"type":"VEC3"
		},
		{
			"bufferView":119,
			"componentType":5126,
			"count":15489,
			"type":"VEC3"
		},
		{
			"bufferView":120,
			"componentType":5126,
			"count":7688,
			"max":[
				0.385284423828125,
				0.38122111558914185,
				0.3022376298904419
			],
			"min":[
				-0.38471555709838867,
				-0.3887788653373718,
				-0.07776272296905518
			],
			"type":"VEC3"
		},
		{
			"bufferView":121,
			"componentType":5126,
			"count":7688,
			"type":"VEC3"
		},
		{
			"bufferView":122,
			"componentType":5126,
			"count":15489,
			"max":[
				0.6781530380249023,
				0.6785172820091248,
				0.3032245635986328
			],
			"min":[
				-0.6867742538452148,
				-0.6864827871322632,
				-0.07677590847015381
			],
			"type":"VEC3"
		},
		{
			"bufferView":123,
			"componentType":5126,
			"count":15489,
			"type":"VEC3"
		},
		{
			"bufferView":124,
			"componentType":5126,
			"count":7688,
			"max":[
				0.3807258605957031,
				0.38101714849472046,
				0.3032243251800537
			],
			"min":[
				-0.38927412033081055,
				-0.3889828324317932,
				-0.07677590847015381
			],
			"type":"VEC3"
		},
		{
			"bufferView":125,
			"componentType":5126,
			"count":7688,
			"type":"VEC3"
		},
		{
			"bufferView":126,
			"componentType":5126,
			"count":15489,
			"max":[
				0.6771003007888794,
				0.6808805465698242,
				0.30210328102111816
			],
			"min":[
				-0.6878268122673035,
				-0.684119462966919,
				-0.07789719104766846
			],
			"type":"VEC3"
		},
		{
			"bufferView":127,
			"componentType":5126,
			"count":15489,
			"type":"VEC3"
		},
		{
			"bufferView":128,
			"componentType":5126,
			"count":7688,
			"max":[
				0.3796743154525757,
				0.3833805322647095,
				0.30210304260253906
			],
			"min":[
				-0.39032673835754395,
				-0.386619508266449,
				-0.07789719104766846
			],
			"type":"VEC3"
		},
		{
			"bufferView":129,
			"componentType":5126,
			"count":7688,
			"type":"VEC3"
		},
		{
			"bufferView":130,
			"componentType":5126,
			"count":15489,
			"max":[
				0.6818447113037109,
				0.6791064143180847,
				0.0775219202041626
			],
			"min":[
				-0.6830822229385376,
				-0.6858935952186584,
				-0.30247819423675537
			],
			"type":"VEC3"
		},
		{
			"bufferView":131,
			"componentType":5126,
			"count":15489,
			"type":"VEC3"
		},
		{
			"bufferView":132,
			"componentType":5126,
			"count":7688,
			"max":[
				0.38434457778930664,
				0.38160640001296997,
				0.0775219202041626
			],
			"min":[
				-0.3856552839279175,
				-0.3883935809135437,
				-0.30247819423675537
			],
			"type":"VEC3"
		},
		{
			"bufferView":133,
			"componentType":5126,
			"count":7688,
			"type":"VEC3"
		},
		{
			"bufferView":134,
			"componentType":5126,
			"count":15489,
			"max":[
				0.6819479465484619,
				0.6820598840713501,
				0.30334997177124023
			],
			"min":[
				-0.6829779148101807,
				-0.6829400658607483,
				-0.07665038108825684
			],
			"type":"VEC3"
		},
		{
			"bufferView":135,
			"componentType":5126,
			"count":15489,
			"type":"VEC3"
		},
		{
			"bufferView":136,
			"componentType":5126,
			"count":7688,
			"max":[
				0.3845221996307373,
				0.3845599889755249,
				0.30334997177124023
			],
			"min":[
				-0.3854787349700928,
				-0.3854401111602783,
				-0.07665038108825684
			],
			"type":"VEC3"
		},
		{
			"bufferView":137,
			"componentType":5126,
			"count":7688,
			"type":"VEC3"
		}
	],
	"bufferViews":[
		{
			"buffer":0,
			"byteLength":35952,
			"byteOffset":0,
			"target":34962
		},
		{
			"buffer":0,
			"byteLength":35952,
			"byteOffset":35952,
			"target":34962
		},
		{
			"buffer":0,
			"byteLength":16512,
			"byteOffset":71904,
			"target":34963
		},
		{
			"buffer":0,
			"byteLength":3804,
			"byteOffset":88416,
			"target":34962
		},
		{
			"buffer":0,
			"byteLength":3804,
			"byteOffset":92220,
			"target":34962
		},
		{
			"buffer":0,
			"byteLength":1638,
			"byteOffset":96024,
			"target":34963
		},
		{
			"buffer":0,
			"byteLength":708,
			"byteOffset":97664,
			"target":34962
		},
		{
			"buffer":0,
			"byteLength":708,
			"byteOffset":98372,
			"target":34962
		},
		{
			"buffer":0,
			"byteLength":234,
			"byteOffset":99080,
			"target":34963
		},
		{
			"buffer":0,
			"byteLength":16404,
			"byteOffset":99316,
			"target":34962
		},
		{
			"buffer":0,
			"byteLength":16404,
			"byteOffset":115720,
			"target":34962
		},
		{
			"buffer":0,
			"byteLength":9552,
			"byteOffset":132124,
			"target":34963
		},
		{
			"buffer":0,
			"byteLength":30888,
			"byteOffset":141676,
			"target":34962
		},
		{
			"buffer":0,
			"byteLength":30888,
			"byteOffset":172564,
			"target":34962
		},
		{
			"buffer":0,
			"byteLength":14544,
			"byteOffset":203452,
			"target":34963
		},
		{
			"buffer":0,
			"byteLength":7968,
			"byteOffset":217996,
			"target":34962
		},
		{
			"buffer":0,
			"byteLength":7968,
			"byteOffset":225964,
			"target":34962
		},
		{
			"buffer":0,
			"byteLength":5616,
			"byteOffset":233932,
			"target":34963
		},
		{
			"buffer":0,
			"byteLength":30888,
			"byteOffset":239548,
			"target":34962
		},
		{
			"buffer":0,
			"byteLength":30888,
			"byteOffset":270436,
			"target":34962
		},
		{
			"buffer":0,
			"byteLength":14544,
			"byteOffset":301324,
			"target":34963
		},
		{
			"buffer":0,
			"byteLength":7968,
			"byteOffset":315868,
			"target":34962
		},
		{
			"buffer":0,
			"byteLength":7968,
			"byteOffset":323836,
			"target":34962
		},
		{
			"buffer":0,
			"byteLength":5616,
			"byteOffset":331804,
			"target":34963
		},
		{
			"buffer":0,
			"byteLength":30888,
			"byteOffset":337420,
			"target":34962
		},
		{
			"buffer":0,
			"byteLength":30888,
			"byteOffset":368308,
			"target":34962
		},
		{
			"buffer":0,
			"byteLength":14544,
			"byteOffset":399196,
			"target":34963
		},
		{
			"buffer":0,
			"byteLength":7968,
			"byteOffset":413740,
			"target":34962
		},
		{
			"buffer":0,
			"byteLength":7968,
			"byteOffset":421708,
			"target":34962
		},
		{
			"buffer":0,
			"byteLength":5616,
			"byteOffset":429676,
			"target":34963
		},
		{
			"buffer":0,
			"byteLength":30888,
			"byteOffset":435292,
			"target":34962
		},
		{
			"buffer":0,
			"byteLength":30888,
			"byteOffset":466180,
			"target":34962
		},
		{
			"buffer":0,
			"byteLength":14544,
			"byteOffset":497068,
			"target":34963
		},
		{
			"buffer":0,
			"byteLength":7968,
			"byteOffset":511612,
			"target":34962
		},
		{
			"buffer":0,
			"byteLength":7968,
			"byteOffset":519580,
			"target":34962
		},
		{
			"buffer":0,
			"byteLength":5616,
			"byteOffset":527548,
			"target":34963
		},
		{
			"buffer":0,
			"byteLength":30888,
			"byteOffset":533164,
			"target":34962
		},
		{
			"buffer":0,
			"byteLength":30888,
			"byteOffset":564052,
			"target":34962
		},
		{
			"buffer":0,
			"byteLength":14544,
			"byteOffset":594940,
			"target":34963
		},
		{
			"buffer":0,
			"byteLength":7968,
			"byteOffset":609484,
			"target":34962
		},
		{
			"buffer":0,
			"byteLength":7968,
			"byteOffset":617452,
			"target":34962
		},
		{
			"buffer":0,
			"byteLength":5616,
			"byteOffset":625420,
			"target":34963
		},
		{
			"buffer":0,
			"byteLength":5964,
			"byteOffset":631036,
			"target":34962
		},
		{
			"buffer":0,
			"byteLength":5964,
			"byteOffset":637000,
			"target":34962
		},
		{
			"buffer":0,
			"byteLength":3000,
			"byteOffset":642964,
			"target":34963
		},
		{
			"buffer":0,
			"byteLength":171192,
			"byteOffset":645964,
			"target":34962
		},
		{
			"buffer":0,
			"byteLength":171192,
			"byteOffset":817156,
			"target":34962
		},
		{
			"buffer":0,
			"byteLength":84828,
			"byteOffset":988348,
			"target":34963
		},
		{
			"buffer":0,
			"byteLength":47808,
			"byteOffset":1073176,
			"target":34962
		},
		{
			"buffer":0,
			"byteLength":47808,
			"byteOffset":1120984,
			"target":34962
		},
		{
			"buffer":0,
			"byteLength":33696,
			"byteOffset":1168792,
			"target":34963
		},
		{
			"buffer":0,
			"byteLength":78984,
			"byteOffset":1202488,
			"target":34962
		},
		{
			"buffer":0,
			"byteLength":78984,
			"byteOffset":1281472,
			"target":34962
		},
		{
			"buffer":0,
			"byteLength":58824,
			"byteOffset":1360456,
			"target":34963
		},
		{
			"buffer":0,
			"byteLength":6144,
			"byteOffset":1419280,
			"target":34962
		},
		{
			"buffer":0,
			"byteLength":6144,
			"byteOffset":1425424,
			"target":34962
		},
		{
			"buffer":0,
			"byteLength":2904,
			"byteOffset":1431568,
			"target":34963
		},
		{
			"buffer":0,
			"byteLength":177564,
			"byteOffset":1434472,
			"target":34962
		},
		{
			"buffer":0,
			"byteLength":177564,
			"byteOffset":1612036,
			"target":34962
		},
		{
			"buffer":0,
			"byteLength":105786,
			"byteOffset":1789600,
			"target":34963
		},
		{
			"buffer":0,
			"byteLength":33924,
			"byteOffset":1895388,
			"target":34962
		},
		{
			"buffer":0,
			"byteLength":33924,
			"byteOffset":1929312,
			"target":34962
		},
		{
			"buffer":0,
			"byteLength":17406,
			"byteOffset":1963236,
			"target":34963
		},
		{
			"buffer":0,
			"byteLength":98640,
			"byteOffset":1980644,
			"target":34962
		},
		{
			"buffer":0,
			"byteLength":98640,
			"byteOffset":2079284,
			"target":34962
		},
		{
			"buffer":0,
			"byteLength":57336,
			"byteOffset":2177924,
			"target":34963
		},
		{
			"buffer":0,
			"byteLength":7296,
			"byteOffset":2235260,
			"target":34962
		},
		{
			"buffer":0,
			"byteLength":7296,
			"byteOffset":2242556,
			"target":34962
		},
		{
			"buffer":0,
			"byteLength":2832,
			"byteOffset":2249852,
			"target":34963
		},
		{
			"buffer":0,
			"byteLength":4800,
			"byteOffset":2252684,
			"target":34962
		},
		{
			"buffer":0,
			"byteLength":4800,
			"byteOffset":2257484,
			"target":34962
		},
		{
			"buffer":0,
			"byteLength":1728,
			"byteOffset":2262284,
			"target":34963
		},
		{
			"buffer":0,
			"byteLength":31848,
			"byteOffset":2264012,
			"target":34962
		},
		{
			"buffer":0,
			"byteLength":31848,
			"byteOffset":2295860,
			"target":34962
		},
		{
			"buffer":0,
			"byteLength":24096,
			"byteOffset":2327708,
			"target":34963
		},
		{
			"buffer":0,
			"byteLength":85044,
			"byteOffset":2351804,
			"target":34962
		},
		{
			"buffer":0,
			"byteLength":85044,
			"byteOffset":2436848,
			"target":34962
		},
		{
			"buffer":0,
			"byteLength":43266,
			"byteOffset":2521892,
			"target":34963
		},
		{
			"buffer":0,
			"byteLength":37368,
			"byteOffset":2565160,
			"target":34962
		},
		{
			"buffer":0,
			"byteLength":37368,
			"byteOffset":2602528,
			"target":34962
		},
		{
			"buffer":0,
			"byteLength":16068,
			"byteOffset":2639896,
			"target":34963
		},
		{
			"buffer":0,
			"byteLength":194004,
			"byteOffset":2655964,
			"target":34962
		},
		{
			"buffer":0,
			"byteLength":194004,
			"byteOffset":2849968,
			"target":34962
		},
		{
			"buffer":0,
			"byteLength":123198,
			"byteOffset":3043972,
			"target":34963
		},
		{
			"buffer":0,
			"byteLength":611592,
			"byteOffset":3167172,
			"target":34962
		},
		{
			"buffer":0,
			"byteLength":611592,
			"byteOffset":3778764,
			"target":34962
		},
		{
			"buffer":0,
			"byteLength":308208,
			"byteOffset":4390356,
			"target":34963
		},
		{
			"buffer":0,
			"byteLength":266784,
			"byteOffset":4698564,
			"target":34962
		},
		{
			"buffer":0,
			"byteLength":266784,
			"byteOffset":4965348,
			"target":34962
		},
		{
			"buffer":0,
			"byteLength":141936,
			"byteOffset":5232132,
			"target":34963
		},
		{
			"buffer":0,
			"byteLength":12768,
			"byteOffset":5374068,
			"target":34962
		},
		{
			"buffer":0,
			"byteLength":12768,
			"byteOffset":5386836,
			"target":34962
		},
		{
			"buffer":0,
			"byteLength":5688,
			"byteOffset":5399604,
			"target":34963
		},
		{
			"buffer":0,
			"byteLength":46872,
			"byteOffset":5405292,
			"target":34962
		},
		{
			"buffer":0,
			"byteLength":46872,
			"byteOffset":5452164,
			"target":34962
		},
		{
			"buffer":0,
			"byteLength":32760,
			"byteOffset":5499036,
			"target":34963
		},
		{
			"buffer":0,
			"byteLength":185868,
			"byteOffset":5531796,
			"target":34962
		},
		{
			"buffer":0,
			"byteLength":185868,
			"byteOffset":5717664,
			"target":34962
		},
		{
			"buffer":0,
			"byteLength":98796,
			"byteOffset":5903532,
			"target":34963
		},
		{
			"buffer":0,
			"byteLength":92256,
			"byteOffset":6002328,
			"target":34962
		},
		{
			"buffer":0,
			"byteLength":92256,
			"byteOffset":6094584,
			"target":34962
		},
		{
			"buffer":0,
			"byteLength":65856,
			"byteOffset":6186840,
			"target":34963
		},
		{
			"buffer":0,
			"byteLength":185868,
			"byteOffset":6252696,
			"target":34962
		},
		{
			"buffer":0,
			"byteLength":185868,
			"byteOffset":6438564,
			"target":34962
		},
		{
			"buffer":0,
			"byteLength":92256,
			"byteOffset":6624432,
			"target":34962
		},
		{
			"buffer":0,
			"byteLength":92256,
			"byteOffset":6716688,
			"target":34962
		},
		{
			"buffer":0,
			"byteLength":185868,
			"byteOffset":6808944,
			"target":34962
		},
		{
			"buffer":0,
			"byteLength":185868,
			"byteOffset":6994812,
			"target":34962
		},
		{
			"buffer":0,
			"byteLength":92256,
			"byteOffset":7180680,
			"target":34962
		},
		{
			"buffer":0,
			"byteLength":92256,
			"byteOffset":7272936,
			"target":34962
		},
		{
			"buffer":0,
			"byteLength":185868,
			"byteOffset":7365192,
			"target":34962
		},
		{
			"buffer":0,
			"byteLength":185868,
			"byteOffset":7551060,
			"target":34962
		},
		{
			"buffer":0,
			"byteLength":92256,
			"byteOffset":7736928,
			"target":34962
		},
		{
			"buffer":0,
			"byteLength":92256,
			"byteOffset":7829184,
			"target":34962
		},
		{
			"buffer":0,
			"byteLength":185868,
			"byteOffset":7921440,
			"target":34962
		},
		{
			"buffer":0,
			"byteLength":185868,
			"byteOffset":8107308,
			"target":34962
		},
		{
			"buffer":0,
			"byteLength":92256,
			"byteOffset":8293176,
			"target":34962
		},
		{
			"buffer":0,
			"byteLength":92256,
			"byteOffset":8385432,
			"target":34962
		},
		{
			"buffer":0,
			"byteLength":185868,
			"byteOffset":8477688,
			"target":34962
		},
		{
			"buffer":0,
			"byteLength":185868,
			"byteOffset":8663556,
			"target":34962
		},
		{
			"buffer":0,
			"byteLength":92256,
			"byteOffset":8849424,
			"target":34962
		},
		{
			"buffer":0,
			"byteLength":92256,
			"byteOffset":8941680,
			"target":34962
		},
		{
			"buffer":0,
			"byteLength":185868,
			"byteOffset":9033936,
			"target":34962
		},
		{
			"buffer":0,
			"byteLength":185868,
			"byteOffset":9219804,
			"target":34962
		},
		{
			"buffer":0,
			"byteLength":92256,
			"byteOffset":9405672,
			"target":34962
		},
		{
			"buffer":0,
			"byteLength":92256,
			"byteOffset":9497928,
			"target":34962
		},
		{
			"buffer":0,
			"byteLength":185868,
			"byteOffset":9590184,
			"target":34962
		},
		{
			"buffer":0,
			"byteLength":185868,
			"byteOffset":9776052,
			"target":34962
		},
		{
			"buffer":0,
			"byteLength":92256,
			"byteOffset":9961920,
			"target":34962
		},
		{
			"buffer":0,
			"byteLength":92256,
			"byteOffset":10054176,
			"target":34962
		},
		{
			"buffer":0,
			"byteLength":185868,
			"byteOffset":10146432,
			"target":34962
		},
		{
			"buffer":0,
			"byteLength":185868,
			"byteOffset":10332300,
			"target":34962
		},
		{
			"buffer":0,
			"byteLength":92256,
			"byteOffset":10518168,
			"target":34962
		},
		{
			"buffer":0,
			"byteLength":92256,
			"byteOffset":10610424,
			"target":34962
		},
		{
			"buffer":0,
			"byteLength":185868,
			"byteOffset":10702680,
			"target":34962
		},
		{
			"buffer":0,
			"byteLength":185868,
			"byteOffset":10888548,
			"target":34962
		},
		{
			"buffer":0,
			"byteLength":92256,
			"byteOffset":11074416,
			"target":34962
		},
		{
			"buffer":0,
			"byteLength":92256,
			"byteOffset":11166672,
			"target":34962
		}
	],
	"buffers":[
		{
			"byteLength":11258928,
			"uri":"LTM%201110%20LIEBHERR.bin"
		}
	]
}
